<svg width="64" height="64" viewBox="0 0 64 64" fill="none" xmlns="http://www.w3.org/2000/svg">
<g clip-path="url(#clip0_0_221)">
<path d="M32.0267 19.88C27.6133 19.88 24.0267 23.4667 24.0267 27.88V31.7333C24.0267 32.5467 23.68 33.7867 23.2667 34.48L21.7333 37.0267C20.7867 38.6 21.44 40.3467 23.1733 40.9333C28.92 42.8533 35.12 42.8533 40.8667 40.9333C42.48 40.4 43.1867 38.4933 42.3067 37.0267L40.7733 34.48C40.3733 33.7867 40.0267 32.5467 40.0267 31.7333V27.88C40.0267 23.48 36.4267 19.88 32.0267 19.88Z" stroke="#99A1A9" stroke-width="1.5" stroke-miterlimit="10" stroke-linecap="round"/>
<path d="M34.4933 20.2667C34.08 20.1467 33.6533 20.0533 33.2133 20C31.9333 19.84 30.7067 19.9333 29.56 20.2667C29.9467 19.28 30.9067 18.5867 32.0267 18.5867C33.1467 18.5867 34.1067 19.28 34.4933 20.2667Z" stroke="#99A1A9" stroke-width="1.5" stroke-miterlimit="10" stroke-linecap="round" stroke-linejoin="round"/>
<path d="M36.0267 41.4133C36.0267 43.6133 34.2267 45.4133 32.0267 45.4133C30.9333 45.4133 29.92 44.96 29.2 44.24C28.48 43.52 28.0267 42.5067 28.0267 41.4133" stroke="#99A1A9" stroke-width="1.5" stroke-miterlimit="10"/>
</g>
<defs>
<clipPath id="clip0_0_221">
<rect width="32" height="32" fill="white" transform="translate(16 16)"/>
</clipPath>
</defs>
</svg>
