<svg width="64" height="32" viewBox="0 0 64 32" fill="none" xmlns="http://www.w3.org/2000/svg">
<path d="M25.0133 29.3333H38.9867C42.6667 29.3333 44.1333 27.08 44.3067 24.3333L45 13.32C45.1867 10.44 42.8933 8 40 8C39.1867 8 38.44 7.53333 38.0667 6.81333L37.1067 4.88C36.4933 3.66667 34.8933 2.66667 33.5333 2.66667H30.48C29.1067 2.66667 27.5067 3.66667 26.8933 4.88L25.9333 6.81333C25.56 7.53333 24.8133 8 24 8C21.1067 8 18.8133 10.44 19 13.32L19.6933 24.3333C19.8533 27.08 21.3333 29.3333 25.0133 29.3333Z" stroke="#001D3D" stroke-width="1.5" stroke-linecap="round" stroke-linejoin="round"/>
<path opacity="0.4" d="M30 10.6667H34" stroke="#001D3D" stroke-width="1.5" stroke-linecap="round" stroke-linejoin="round"/>
<path opacity="0.4" d="M32 24C34.3867 24 36.3333 22.0533 36.3333 19.6667C36.3333 17.28 34.3867 15.3333 32 15.3333C29.6133 15.3333 27.6667 17.28 27.6667 19.6667C27.6667 22.0533 29.6133 24 32 24Z" stroke="#001D3D" stroke-width="1.5" stroke-linecap="round" stroke-linejoin="round"/>
</svg>
