<svg width="32" height="32" viewBox="0 0 32 32" fill="none" xmlns="http://www.w3.org/2000/svg">
<path d="M27.7733 10.68L19.04 3.69333C17.3333 2.33333 14.6667 2.32 12.9733 3.68L4.24 10.68C2.98667 11.68 2.22667 13.68 2.49333 15.2533L4.17333 25.3067C4.56 27.56 6.65333 29.3333 8.93333 29.3333H23.0667C25.32 29.3333 27.4533 27.52 27.84 25.2933L29.52 15.24C29.76 13.68 29 11.68 27.7733 10.68ZM17 24C17 24.5467 16.5467 25 16 25C15.4533 25 15 24.5467 15 24V20C15 19.4533 15.4533 19 16 19C16.5467 19 17 19.4533 17 20V24Z" fill="white"/>
</svg>
