<svg width="89" height="109" viewBox="0 0 89 109" fill="none" xmlns="http://www.w3.org/2000/svg">
<path d="M2 51.7201L16.5549 50.781L29.7012 96.7982L5.7561 102.433L2 51.7201Z" stroke="#006FFF" stroke-width="2"/>
<path d="M41.4391 39.0419C45.1952 20.2594 39.4235 -1.37166 24.0671 0.0682058C11.8598 1.2128 11.2025 28.242 17.9634 70.5026C23.5976 105.72 41.1163 111.721 67.7318 108.068C91.6769 104.781 92.1464 89.7547 84.9077 84.5895C89.4151 77.4522 90.2684 64.8679 80.4086 62.0504C84.9077 57.8244 87.1895 48.1539 80.4086 40.9202C73.3659 33.4072 53.6464 34.8159 41.4391 39.0419Z" fill="#675243"/>
<mask id="mask0_0_214" style="mask-type:alpha" maskUnits="userSpaceOnUse" x="13" y="0" width="76" height="109">
<path d="M41.4391 39.0419C45.1952 20.2594 39.4235 -1.37166 24.0671 0.0682058C11.8598 1.2128 11.2025 28.242 17.9634 70.5026C23.5976 105.72 41.1163 111.721 67.7318 108.068C91.6769 104.781 92.1464 89.7547 84.9077 84.5895C89.4151 77.4522 90.2684 64.8679 80.4086 62.0504C84.9077 57.8244 87.1895 48.1539 80.4086 40.9202C73.3659 33.4072 53.6464 34.8159 41.4391 39.0419Z" fill="#C4C4C4"/>
</mask>
<g mask="url(#mask0_0_214)">
<path fill-rule="evenodd" clip-rule="evenodd" d="M28.22 46.0854C28.4516 46.0854 28.6832 46.0854 28.9148 46.0854C29.0426 46.5679 28.0921 46.5679 28.22 46.0854Z" fill="#544236"/>
<path fill-rule="evenodd" clip-rule="evenodd" d="M35.1678 46.0854C35.3989 46.0854 35.6309 46.0854 35.862 46.0854C35.9904 46.5679 35.0404 46.5679 35.1678 46.0854Z" fill="#544236"/>
<path fill-rule="evenodd" clip-rule="evenodd" d="M31.8097 48.9806C32.1194 48.8503 32.653 48.9039 32.736 49.4438C32.8649 50.2835 31.443 50.5522 31.3465 49.6755C31.3175 49.413 31.3127 49.1895 31.8097 48.9806Z" fill="#544236"/>
<path fill-rule="evenodd" clip-rule="evenodd" d="M25.6725 49.2122C25.794 49.9515 25.4853 50.2603 24.7461 50.1387C23.9785 49.5288 25.0631 48.4445 25.6725 49.2122Z" fill="#544236"/>
<path fill-rule="evenodd" clip-rule="evenodd" d="M39.568 49.2122C39.6896 49.9515 39.3808 50.2603 38.6416 50.1387C37.874 49.5288 38.9586 48.4445 39.568 49.2122Z" fill="#544236"/>
<path fill-rule="evenodd" clip-rule="evenodd" d="M18.6089 49.4438C18.6446 49.9042 18.3865 50.0707 17.9141 50.0229C17.863 49.9196 17.8123 49.8159 17.6825 49.7913C17.4654 49.0318 18.4849 48.8831 18.6089 49.4438Z" fill="#544236"/>
<path fill-rule="evenodd" clip-rule="evenodd" d="M46.4 49.4438C46.4357 49.9042 46.1776 50.0707 45.7057 50.0229C45.6545 49.9196 45.6039 49.8159 45.4741 49.7913C45.2565 49.0318 46.276 48.8831 46.4 49.4438Z" fill="#544236"/>
<path fill-rule="evenodd" clip-rule="evenodd" d="M52.653 49.328C52.8074 49.328 52.9622 49.328 53.1162 49.328C53.1162 49.4824 53.1162 49.6369 53.1162 49.7913C52.7176 49.881 52.5628 49.7266 52.653 49.328Z" fill="#544236"/>
<path fill-rule="evenodd" clip-rule="evenodd" d="M28.22 52.2233C29.901 51.5192 29.8025 54.4111 28.22 53.9604C27.4987 53.7548 27.4644 52.5398 28.22 52.2233Z" fill="#544236"/>
<path fill-rule="evenodd" clip-rule="evenodd" d="M35.1678 52.2233C36.8482 51.5192 36.7498 54.4111 35.1678 53.9604C34.446 53.7548 34.4122 52.5398 35.1678 52.2233Z" fill="#544236"/>
<path fill-rule="evenodd" clip-rule="evenodd" d="M21.1564 52.3391C21.5274 52.0134 22.2647 52.3063 22.4302 52.5707C22.8625 53.8808 21.3369 54.1886 20.809 53.4972C20.8032 52.9895 20.728 52.4124 21.1564 52.3391Z" fill="#544236"/>
<path fill-rule="evenodd" clip-rule="evenodd" d="M41.9997 52.3391C42.3712 52.0134 43.1085 52.3063 43.274 52.5707C43.7063 53.8808 42.1807 54.1886 41.6528 53.4972C41.6461 52.9895 41.5713 52.4124 41.9997 52.3391Z" fill="#544236"/>
<path fill-rule="evenodd" clip-rule="evenodd" d="M49.1791 52.4549C49.4888 52.3246 50.0225 52.3782 50.1059 52.9181C50.2348 53.7577 48.8129 54.0265 48.7159 53.1497C48.687 52.8872 48.6821 52.6638 49.1791 52.4549Z" fill="#544236"/>
<path fill-rule="evenodd" clip-rule="evenodd" d="M55.8953 53.1497C55.8668 52.4361 56.8496 52.4361 56.8216 53.1497C56.6142 53.5526 56.1027 53.5526 55.8953 53.1497Z" fill="#544236"/>
<path fill-rule="evenodd" clip-rule="evenodd" d="M24.8619 55.4659C25.436 55.3337 26.1834 55.5634 26.2514 56.3924C26.3803 57.9611 23.9355 58.0513 23.9355 56.5082C23.9355 56.141 24.0364 55.656 24.8619 55.4659Z" fill="#544236"/>
<path fill-rule="evenodd" clip-rule="evenodd" d="M31.6939 55.4659C33.4704 54.9134 33.6363 57.5563 32.157 57.6663C31.6225 57.7063 30.9417 57.4115 30.8833 56.624C30.8326 55.9446 31.0232 55.6744 31.6939 55.4659Z" fill="#544236"/>
<path fill-rule="evenodd" clip-rule="evenodd" d="M38.7574 55.4659C39.3316 55.3337 40.079 55.5634 40.147 56.3924C40.2758 57.9611 37.8311 58.0513 37.8311 56.5082C37.8311 56.141 37.9319 55.656 38.7574 55.4659Z" fill="#544236"/>
<path fill-rule="evenodd" clip-rule="evenodd" d="M17.9141 55.5817C18.6446 55.3868 19.1488 55.7699 19.1879 56.3924C19.2675 57.6537 17.2179 58.0084 17.1035 56.624C17.0717 56.2341 17.0765 55.8056 17.9141 55.5817Z" fill="#544236"/>
<path fill-rule="evenodd" clip-rule="evenodd" d="M45.5894 55.5817C47.1136 55.035 47.4359 57.4356 46.0526 57.5505C45.092 57.6301 44.2592 56.0589 45.5894 55.5817Z" fill="#544236"/>
<path fill-rule="evenodd" clip-rule="evenodd" d="M53.5793 55.9291C54.1636 56.9444 52.9526 57.7628 52.1898 57.0872C51.606 56.072 52.817 55.2536 53.5793 55.9291Z" fill="#544236"/>
<path fill-rule="evenodd" clip-rule="evenodd" d="M60.4113 56.624C60.1797 57.1635 59.485 57.1635 59.2538 56.624C59.2519 55.7738 60.4123 55.7738 60.4113 56.624Z" fill="#544236"/>
<path fill-rule="evenodd" clip-rule="evenodd" d="M21.2722 58.8244C22.1527 58.5816 22.8355 58.9976 22.8933 59.8666C23.013 61.666 20.451 61.6829 20.3458 60.0983C20.315 59.6302 20.3878 59.0685 21.2722 58.8244Z" fill="#544236"/>
<path fill-rule="evenodd" clip-rule="evenodd" d="M27.9884 58.8244C28.3266 58.683 28.8699 58.6159 29.1463 58.7086C29.2028 58.7274 29.2182 58.9204 29.2621 58.9402C29.3123 58.9629 29.4547 58.904 29.4937 58.9402C29.5917 59.0309 29.5256 59.1757 29.6095 59.2876C29.6308 59.3161 29.8339 59.3822 29.8411 59.4034C30.0621 60.079 29.7827 60.6199 29.4937 60.9089C29.2785 61.1241 28.7242 61.4967 27.9884 61.2563C27.9319 61.238 27.9165 61.0445 27.8726 61.0247C27.8224 61.0021 27.6801 61.0609 27.641 61.0247C27.543 60.934 27.6092 60.7893 27.5252 60.6773C27.504 60.6488 27.3004 60.5827 27.2936 60.5615C27.0654 59.8604 27.201 59.1544 27.9884 58.8244Z" fill="#544236"/>
<path fill-rule="evenodd" clip-rule="evenodd" d="M34.9362 58.8244C35.2739 58.683 35.8177 58.6159 36.0941 58.7086C36.1501 58.7274 36.166 58.9204 36.2094 58.9402C36.2596 58.9629 36.4019 58.904 36.441 58.9402C36.539 59.0309 36.4729 59.1757 36.5568 59.2876C36.5781 59.3161 36.7812 59.3822 36.7879 59.4034C37.0089 60.079 36.73 60.6199 36.4405 60.9089C36.2254 61.1241 35.671 61.4967 34.9352 61.2563C34.8787 61.238 34.8633 61.0445 34.8194 61.0247C34.7692 61.0021 34.6274 61.0609 34.5883 61.0247C34.4903 60.934 34.5564 60.7893 34.4725 60.6773C34.4513 60.6488 34.2477 60.5827 34.2409 60.5615C34.0132 59.8604 34.1487 59.1544 34.9362 58.8244Z" fill="#544236"/>
<path fill-rule="evenodd" clip-rule="evenodd" d="M42.1155 58.8244C42.5256 58.7134 42.902 58.6936 43.1577 58.8244C43.3975 58.9474 43.6937 59.4328 43.7367 59.7508C43.9794 61.5521 41.3069 61.8619 41.1891 60.0983C41.1341 59.2717 41.3903 59.0208 42.1155 58.8244Z" fill="#544236"/>
<path fill-rule="evenodd" clip-rule="evenodd" d="M49.0633 58.9402C49.6428 58.7612 50.5093 59.0632 50.5686 59.8666C50.6188 60.5528 50.009 61.1048 49.5265 61.1405C48.4081 61.2231 47.6207 59.386 49.0633 58.9402Z" fill="#544236"/>
<path fill-rule="evenodd" clip-rule="evenodd" d="M56.0111 59.1718C57.692 58.4678 57.5936 61.3596 56.0111 60.9089C55.2898 60.7034 55.255 59.4883 56.0111 59.1718Z" fill="#544236"/>
<path fill-rule="evenodd" clip-rule="evenodd" d="M63.8852 59.635C64.0068 60.3743 63.698 60.6831 62.9588 60.5615C62.1907 59.9516 63.2753 58.8673 63.8852 59.635Z" fill="#544236"/>
<path fill-rule="evenodd" clip-rule="evenodd" d="M24.8619 62.067C24.9106 62.0583 24.9642 61.943 25.0935 61.9512C25.9316 62.0033 26.5597 62.6596 26.5988 63.3409C26.6456 64.1574 25.8616 64.9251 25.2093 64.9622C24.5044 65.0023 23.5881 64.3774 23.5881 63.4567C23.5881 62.6871 24.1126 62.2026 24.8619 62.067Z" fill="#544236"/>
<path fill-rule="evenodd" clip-rule="evenodd" d="M31.6939 62.067C33.9364 61.5632 34.1072 64.8604 32.157 64.9622C31.3132 65.0061 30.5359 64.4922 30.5359 63.4567C30.5359 62.6644 30.8548 62.2557 31.6939 62.067Z" fill="#544236"/>
<path fill-rule="evenodd" clip-rule="evenodd" d="M38.7574 62.067C38.8062 62.0583 38.8602 61.943 38.989 61.9512C39.8271 62.0033 40.4553 62.6596 40.4939 63.3409C40.5412 64.1574 39.7571 64.9251 39.1043 64.9622C38.3994 65.0023 37.4837 64.3774 37.4837 63.4567C37.4837 62.6871 38.0081 62.2026 38.7574 62.067Z" fill="#544236"/>
<path fill-rule="evenodd" clip-rule="evenodd" d="M17.7983 62.1828C18.5775 61.985 19.5353 62.4333 19.5353 63.4567C19.5353 64.2341 18.8612 64.8112 18.2615 64.8464C17.615 64.8845 16.7562 64.4681 16.7562 63.4567C16.7562 62.7532 17.023 62.3797 17.7983 62.1828Z" fill="#544236"/>
<path fill-rule="evenodd" clip-rule="evenodd" d="M45.5894 62.1828C46.3686 61.985 47.3263 62.4333 47.3263 63.4567C47.3263 64.2341 46.6528 64.8112 46.0526 64.8464C45.4061 64.8845 44.5472 64.4681 44.5472 63.4567C44.5472 62.7532 44.8141 62.3797 45.5894 62.1828Z" fill="#544236"/>
<path fill-rule="evenodd" clip-rule="evenodd" d="M52.7688 62.2986C52.9733 62.2706 53.2797 62.2113 53.4635 62.2986C53.5832 62.3551 54.0121 62.8111 54.042 62.8777C54.1805 63.1841 54.1385 63.8225 54.042 64.0358C54.0107 64.1057 53.4394 64.6254 53.4635 64.6148C52.3606 65.1138 51.3112 63.7708 51.7261 62.8777C51.729 62.8719 52.2226 62.3343 52.3051 62.2986C52.4257 62.247 52.6375 62.3165 52.7688 62.2986Z" fill="#544236"/>
<path fill-rule="evenodd" clip-rule="evenodd" d="M59.7165 62.5302C60.0712 62.4661 60.5122 62.606 60.6429 62.7619C60.8909 63.0586 60.8407 64.0049 60.5271 64.2674C60.2289 64.5173 59.3643 64.5608 59.0218 64.1516C58.8191 63.9093 58.7607 63.0572 59.0218 62.7619C59.1627 62.6021 59.4555 62.5771 59.7165 62.5302Z" fill="#544236"/>
<path fill-rule="evenodd" clip-rule="evenodd" d="M67.3591 63.1093C67.4807 63.8485 67.1714 64.1574 66.4327 64.0358C65.6646 63.4263 66.7497 62.3411 67.3591 63.1093Z" fill="#544236"/>
<path fill-rule="evenodd" clip-rule="evenodd" d="M21.5038 65.4255C21.9351 65.3791 22.4982 65.4935 22.7776 65.7729C23.3392 66.3346 23.2099 67.6572 22.7776 68.0891C22.2642 68.6025 21.0001 68.6276 20.4616 68.0891C20.2628 67.8903 19.9782 67.192 19.9984 66.8152C20.0105 66.5956 20.2484 66.0089 20.3458 65.8887C20.5823 65.5982 21.0522 65.4737 21.5038 65.4255Z" fill="#544236"/>
<path fill-rule="evenodd" clip-rule="evenodd" d="M28.1042 65.4255C28.4631 65.3275 28.7473 65.2445 29.0306 65.3097C29.4402 65.4042 30.1287 66.1334 30.1885 66.6994C30.2879 67.6418 29.5815 68.4698 28.799 68.5523C28.0328 68.6329 26.871 68.2377 26.9462 66.8152C26.9781 66.2159 27.2555 65.6571 28.1042 65.4255Z" fill="#544236"/>
<path fill-rule="evenodd" clip-rule="evenodd" d="M35.052 65.4255C35.4104 65.3275 35.6946 65.2445 35.9783 65.3097C36.388 65.4042 37.0765 66.1334 37.1358 66.6994C37.2352 67.6418 36.5288 68.4698 35.7462 68.5523C34.9801 68.6329 33.8182 68.2377 33.8935 66.8152C33.9258 66.2159 34.2028 65.6571 35.052 65.4255Z" fill="#544236"/>
<path fill-rule="evenodd" clip-rule="evenodd" d="M42.3471 65.4255C42.7785 65.3791 43.3415 65.4935 43.6209 65.7729C44.1825 66.3346 44.0532 67.6572 43.6209 68.0891C43.1075 68.6025 41.8434 68.6276 41.3049 68.0891C41.1062 67.8903 40.821 67.192 40.8418 66.8152C40.8533 66.5956 41.0917 66.0089 41.1891 65.8887C41.4251 65.5982 41.8955 65.4737 42.3471 65.4255Z" fill="#544236"/>
<path fill-rule="evenodd" clip-rule="evenodd" d="M49.2949 65.5413C49.9646 65.4655 50.8673 65.9514 50.916 66.8152C50.9551 67.5047 50.3202 68.3916 49.5265 68.4365C48.81 68.477 47.8677 67.9038 47.9053 66.8152C47.9044 66.8485 47.9941 66.4263 48.0211 66.3519C48.1432 66.019 48.534 65.6277 49.2949 65.5413Z" fill="#544236"/>
<path fill-rule="evenodd" clip-rule="evenodd" d="M56.0111 65.7729C56.4212 65.6619 56.7975 65.6421 57.0532 65.7729C57.293 65.8959 57.5893 66.3814 57.6322 66.6994C57.8749 68.5007 55.2029 68.8105 55.0847 67.0468C55.0297 66.2202 55.2859 65.9698 56.0111 65.7729Z" fill="#544236"/>
<path fill-rule="evenodd" clip-rule="evenodd" d="M63.0746 66.0045C63.4727 65.8988 63.8973 65.9833 64.1168 66.2361C64.138 66.2612 64.3397 66.7114 64.3479 66.8152C64.3991 67.4449 63.8558 67.9376 63.4215 67.9733C62.431 68.0543 61.5674 66.405 63.0746 66.0045Z" fill="#544236"/>
<path fill-rule="evenodd" clip-rule="evenodd" d="M70.833 66.5836C70.9541 67.3228 70.6453 67.6316 69.9066 67.51C69.139 66.9001 70.2236 65.8158 70.833 66.5836Z" fill="#544236"/>
<path fill-rule="evenodd" clip-rule="evenodd" d="M24.6303 68.7839C25.0052 68.6908 25.2315 68.6025 25.5567 68.6681C26.0633 68.7704 26.7378 69.4296 26.8304 70.0578C26.9896 71.1377 26.2558 72.0222 25.4409 72.1424C24.4339 72.291 23.2224 71.6135 23.3565 70.1736C23.4111 69.5898 23.716 69.0112 24.6303 68.7839Z" fill="#544236"/>
<path fill-rule="evenodd" clip-rule="evenodd" d="M31.4623 68.7839C31.9095 68.6527 32.3298 68.5972 32.6202 68.6681C32.8962 68.7357 33.6749 69.4064 33.7777 69.8262C34.1873 71.49 32.6415 72.4324 31.4618 72.1424C31.1834 72.0739 30.3936 71.3452 30.3038 70.9843C30.0607 70.0018 30.4293 69.0874 31.4623 68.7839Z" fill="#544236"/>
<path fill-rule="evenodd" clip-rule="evenodd" d="M38.5258 68.7839C38.9002 68.6908 39.127 68.6025 39.4522 68.6681C39.9588 68.7704 40.6328 69.4296 40.726 70.0578C40.8852 71.1377 40.1518 72.0222 39.3364 72.1424C38.329 72.291 37.1175 71.6135 37.2521 70.1736C37.3066 69.5898 37.6115 69.0112 38.5258 68.7839Z" fill="#544236"/>
<path fill-rule="evenodd" clip-rule="evenodd" d="M17.6825 68.8997C18.0415 68.8081 18.2982 68.7212 18.6089 68.7839C19.0151 68.866 19.3678 69.3041 19.5353 69.4788C19.9362 69.8971 19.7258 71.3086 19.3037 71.6791C19.2274 71.7462 19.1406 71.7293 19.0721 71.795C18.8675 71.9913 17.8109 72.1448 17.3351 71.9108C17.2835 71.8852 17.2618 71.6985 17.2193 71.6791C17.1677 71.6555 17.0292 71.7158 16.9877 71.6791C16.8025 71.5165 16.5752 71.0379 16.5246 70.7527C16.3764 69.9126 16.7002 69.1507 17.6825 68.8997Z" fill="#544236"/>
<path fill-rule="evenodd" clip-rule="evenodd" d="M45.3578 68.8997C45.835 68.7463 46.4265 68.6792 46.7479 68.8997C46.7893 68.9287 46.8265 69.1149 46.8632 69.1314C47.0431 69.2124 47.4716 69.4918 47.5579 69.8262C47.7037 70.3888 47.5193 71.0306 47.3263 71.3317C47.0031 71.836 45.876 72.3504 45.0104 71.795C44.1111 71.2174 43.9813 69.3427 45.3578 68.8997Z" fill="#544236"/>
<path fill-rule="evenodd" clip-rule="evenodd" d="M52.5372 69.0155C54.7793 68.5123 54.9506 71.809 53.0004 71.9108C52.1565 71.9547 51.3792 71.4413 51.3792 70.4053C51.3792 69.6129 51.6981 69.2042 52.5372 69.0155Z" fill="#544236"/>
<path fill-rule="evenodd" clip-rule="evenodd" d="M59.3692 69.2472C60.1469 68.9798 60.9628 69.322 61.1066 70.0578C61.2658 70.8748 60.7283 71.572 60.1802 71.6791C58.7154 71.9653 57.8098 69.7828 59.3692 69.2472Z" fill="#544236"/>
<path fill-rule="evenodd" clip-rule="evenodd" d="M66.6643 69.4788C67.0194 69.4151 67.4604 69.5545 67.5907 69.7104C67.8392 70.0072 67.789 70.9534 67.4754 71.2159C67.1767 71.4659 66.3126 71.5093 65.97 71.1001C65.7669 70.8579 65.709 70.0057 65.97 69.7104C66.1104 69.5507 66.4038 69.5256 66.6643 69.4788Z" fill="#544236"/>
<path fill-rule="evenodd" clip-rule="evenodd" d="M74.3069 70.5211C74.0758 71.0605 73.381 71.0605 73.1494 70.5211C73.1479 69.6708 74.3083 69.6708 74.3069 70.5211Z" fill="#544236"/>
<path fill-rule="evenodd" clip-rule="evenodd" d="M21.388 72.1424C21.4319 72.1361 21.4917 72.0092 21.6196 72.0266C22.4089 72.1351 22.8176 72.4589 23.1249 72.953C23.1896 73.0568 23.4574 73.465 23.4723 73.7637C23.5433 75.1978 21.9139 76.1441 20.6932 75.385C20.3097 75.1467 19.7669 74.6733 19.7669 73.8795C19.7669 73.6542 19.8773 73.1292 19.9984 72.953C20.0274 72.9111 20.2131 72.8739 20.23 72.8372C20.397 72.4671 20.6614 72.2442 21.388 72.1424Z" fill="#544236"/>
<path fill-rule="evenodd" clip-rule="evenodd" d="M27.9884 72.1424C28.5341 71.987 28.7917 71.9407 29.1463 72.0266C29.5053 72.1134 30.299 72.8175 30.4201 73.4163C30.6671 74.6395 29.7292 75.9694 28.22 75.7325C27.4432 75.6104 26.5168 74.9218 26.7146 73.5321C26.7836 73.0491 27.1493 72.3817 27.9884 72.1424Z" fill="#544236"/>
<path fill-rule="evenodd" clip-rule="evenodd" d="M34.9362 72.1424C35.4818 71.987 35.7395 71.9407 36.0941 72.0266C36.4531 72.1134 37.2468 72.8175 37.3679 73.4163C37.6154 74.6395 36.677 75.9694 35.1678 75.7325C34.391 75.6104 33.4641 74.9218 33.6624 73.5321C33.7314 73.0491 34.0971 72.3817 34.9362 72.1424Z" fill="#544236"/>
<path fill-rule="evenodd" clip-rule="evenodd" d="M42.2313 72.1424C42.2752 72.1361 42.335 72.0092 42.4624 72.0266C43.2523 72.1351 43.6604 72.4589 43.9678 72.953C44.0324 73.0568 44.3002 73.465 44.3157 73.7637C44.3861 75.1978 42.7572 76.1441 41.5361 75.385C41.153 75.1467 40.6097 74.6733 40.6097 73.8795C40.6097 73.6542 40.7202 73.1292 40.8413 72.953C40.8702 72.9111 41.056 72.8739 41.0724 72.8372C41.2403 72.4671 41.5047 72.2442 42.2313 72.1424Z" fill="#544236"/>
<path fill-rule="evenodd" clip-rule="evenodd" d="M49.1791 72.2582C51.5766 71.8891 51.7309 75.6166 49.4107 75.6166C48.658 75.6166 47.6737 75.0656 47.6737 73.8795C47.6737 72.9723 48.2257 72.4049 49.1791 72.2582Z" fill="#544236"/>
<path fill-rule="evenodd" clip-rule="evenodd" d="M55.8953 72.4898C56.7652 72.2374 57.7138 72.6322 57.8633 73.5321C58.009 74.4055 57.4354 75.2634 56.7058 75.385C55.943 75.5119 54.7778 75.1896 54.8531 73.7637C54.8825 73.2107 55.0818 72.7258 55.8953 72.4898Z" fill="#544236"/>
<path fill-rule="evenodd" clip-rule="evenodd" d="M62.9588 72.7214C63.3685 72.6104 63.7453 72.5902 64.001 72.7214C64.2408 72.844 64.537 73.3299 64.58 73.6479C64.8227 75.4492 62.1502 75.759 62.0325 73.9953C61.977 73.1683 62.2337 72.9178 62.9588 72.7214Z" fill="#544236"/>
<path fill-rule="evenodd" clip-rule="evenodd" d="M69.9066 73.0689C71.5871 72.3653 71.4887 75.2567 69.9066 74.806C69.1848 74.6004 69.151 73.3854 69.9066 73.0689Z" fill="#544236"/>
<path fill-rule="evenodd" clip-rule="evenodd" d="M76.7386 73.9953C76.7106 73.2817 77.6934 73.2817 77.6649 73.9953C77.4575 74.3982 76.946 74.3982 76.7386 73.9953Z" fill="#544236"/>
<path fill-rule="evenodd" clip-rule="evenodd" d="M24.6303 75.5008C25.9103 75.2017 27.2068 76.0451 27.062 77.5854C26.9863 78.3898 26.209 79.2144 25.4409 79.3225C24.486 79.4567 22.9715 78.7556 23.1249 77.1222C23.1891 76.4394 23.6176 75.7373 24.6303 75.5008Z" fill="#544236"/>
<path fill-rule="evenodd" clip-rule="evenodd" d="M31.4623 75.5008C32.022 75.3537 32.2502 75.3064 32.6202 75.385C32.6087 75.3826 32.9112 75.4729 32.9676 75.5008C33.0192 75.5264 33.041 75.7132 33.0834 75.7325C33.6918 76.0065 34.2211 76.9407 34.0098 77.9328C33.9061 78.4178 33.2161 79.1898 32.6202 79.3225C32.1797 79.421 31.4232 79.3607 31.1149 79.2067C31.0637 79.1811 31.0415 78.9944 30.9991 78.9751C30.7279 78.853 30.5827 78.6866 30.3043 78.3961C30.1538 78.2392 29.926 77.4624 30.0727 76.7747C30.16 76.3651 30.615 75.7233 31.4623 75.5008Z" fill="#544236"/>
<path fill-rule="evenodd" clip-rule="evenodd" d="M38.5258 75.5008C39.8059 75.2017 41.1023 76.0451 40.9576 77.5854C40.8818 78.3898 40.1045 79.2144 39.3364 79.3225C38.3816 79.4567 36.8671 78.7556 37.0205 77.1222C37.0847 76.4394 37.5131 75.7373 38.5258 75.5008Z" fill="#544236"/>
<path fill-rule="evenodd" clip-rule="evenodd" d="M17.6825 75.6166C19.4923 75.1939 20.3984 76.8351 19.8827 78.1644C19.6385 78.7946 18.5418 79.5595 17.3351 79.0909C16.1627 78.6359 15.7164 76.076 17.6825 75.6166Z" fill="#544236"/>
<path fill-rule="evenodd" clip-rule="evenodd" d="M45.4736 75.6166C47.2839 75.1939 48.1895 76.8351 47.6742 78.1644C47.4296 78.7946 46.3334 79.5595 45.1267 79.0909C43.9538 78.6359 43.5075 76.076 45.4736 75.6166Z" fill="#544236"/>
<path fill-rule="evenodd" clip-rule="evenodd" d="M52.5372 75.7325C55.0282 75.2161 55.2352 78.9741 53.0004 79.0909C51.0048 79.1951 50.4031 76.1749 52.5372 75.7325Z" fill="#544236"/>
<path fill-rule="evenodd" clip-rule="evenodd" d="M59.485 75.9641C61.7271 75.4608 61.8983 78.7575 59.9481 78.8593C59.1043 78.9032 58.3275 78.3898 58.3275 77.3538C58.327 76.5619 58.6459 76.1527 59.485 75.9641Z" fill="#544236"/>
<path fill-rule="evenodd" clip-rule="evenodd" d="M66.6643 76.1957C66.8689 76.1677 67.1753 76.1084 67.3591 76.1957C67.4788 76.2526 67.9082 76.7081 67.9381 76.7747C68.0765 77.0811 68.0341 77.7195 67.9381 77.9328C67.9062 78.0033 67.335 78.523 67.3591 78.5119C66.2561 79.0103 65.2072 77.6674 65.6217 76.7747C65.6246 76.7685 66.1186 76.2314 66.2006 76.1957C66.3213 76.1436 66.5331 76.2135 66.6643 76.1957Z" fill="#544236"/>
<path fill-rule="evenodd" clip-rule="evenodd" d="M74.4227 76.7747C75.0065 77.79 73.7959 78.6079 73.0331 77.9328C72.4493 76.9176 73.6599 76.0992 74.4227 76.7747Z" fill="#544236"/>
<path fill-rule="evenodd" clip-rule="evenodd" d="M81.023 77.4696C80.7929 77.471 80.8759 77.7856 80.5599 77.7012C80.5092 77.5979 80.4585 77.4942 80.3287 77.4696C80.3065 76.9021 81.0448 76.9021 81.023 77.4696Z" fill="#544236"/>
<path fill-rule="evenodd" clip-rule="evenodd" d="M27.9884 78.8593C28.5331 78.7208 29.0373 78.6339 29.4937 78.8593C29.5454 78.8849 29.5671 79.0716 29.6095 79.0909C29.666 79.1165 29.7929 79.0547 29.8411 79.0909C30.203 79.3631 30.617 80.0936 30.6517 80.249C30.7791 80.8218 30.5948 81.4105 30.4201 81.7545C30.0061 82.569 28.8646 83.3035 27.641 82.681C27.0157 82.363 26.1916 81.6156 26.483 80.249C26.5453 79.9576 27.0775 79.115 27.7568 78.8593C27.8239 78.8342 27.9184 78.8771 27.9884 78.8593Z" fill="#544236"/>
<path fill-rule="evenodd" clip-rule="evenodd" d="M34.9362 78.8593C35.4809 78.7208 35.9851 78.6339 36.4415 78.8593C36.4931 78.8849 36.5144 79.0716 36.5573 79.0909C36.6133 79.1165 36.7402 79.0547 36.7884 79.0909C37.1503 79.3631 37.5642 80.0936 37.599 80.249C37.7268 80.8218 37.5425 81.4105 37.3679 81.7545C36.9539 82.569 35.8123 83.3035 34.5888 82.681C33.9635 82.363 33.1389 81.6156 33.4308 80.249C33.493 79.9576 34.0252 79.115 34.7046 78.8593C34.7716 78.8342 34.8657 78.8771 34.9362 78.8593Z" fill="#544236"/>
<path fill-rule="evenodd" clip-rule="evenodd" d="M20.9248 78.9751C22.0157 78.6441 22.4302 78.8593 23.0091 79.4383C23.3667 79.7959 23.8617 80.4493 23.5881 81.5229C23.4911 81.9031 22.7838 82.6757 22.3144 82.7968C21.3301 83.0516 20.742 82.7297 20.23 82.2178C19.872 81.8597 19.3683 81.244 19.6511 80.1332C19.7215 79.8557 20.2088 79.1922 20.9248 78.9751Z" fill="#544236"/>
<path fill-rule="evenodd" clip-rule="evenodd" d="M41.7681 78.9751C42.859 78.6441 43.2735 78.8593 43.8525 79.4383C44.2095 79.7959 44.7045 80.4493 44.431 81.5229C44.3345 81.9031 43.6267 82.6757 43.1572 82.7968C42.1729 83.0516 41.5848 82.7297 41.0729 82.2178C40.7149 81.8597 40.2116 81.244 40.4939 80.1332C40.5648 79.8557 41.0521 79.1922 41.7681 78.9751Z" fill="#544236"/>
<path fill-rule="evenodd" clip-rule="evenodd" d="M48.8317 79.0909C49.2457 78.9751 49.9675 78.9264 50.4529 79.2067C50.5006 79.2342 50.5281 79.42 50.5686 79.4383C50.9059 79.5903 50.6912 79.3167 51.0318 79.9016C51.2692 80.3103 51.384 81.2604 51.0318 81.8703C51.0038 81.9181 50.8186 81.9456 50.8002 81.9861C50.7008 82.2067 50.6695 82.2559 50.3371 82.4494C49.4281 82.9787 47.2713 82.5869 47.5579 80.4806C47.6303 79.9484 47.9666 79.3327 48.8317 79.0909Z" fill="#544236"/>
<path fill-rule="evenodd" clip-rule="evenodd" d="M56.1269 79.2067C58.5238 78.8376 58.6787 82.5652 56.3584 82.5652C55.6058 82.5652 54.621 82.0141 54.621 80.828C54.6215 79.9209 55.173 79.3534 56.1269 79.2067Z" fill="#544236"/>
<path fill-rule="evenodd" clip-rule="evenodd" d="M63.1904 79.4383C63.8601 79.3626 64.7633 79.848 64.8116 80.7122C64.8507 81.4018 64.2157 82.2892 63.422 82.3336C62.706 82.3741 61.7632 81.8004 61.8009 80.7122C61.7999 80.7455 61.8897 80.3233 61.9167 80.249C62.0387 79.9161 62.4291 79.5247 63.1904 79.4383Z" fill="#544236"/>
<path fill-rule="evenodd" clip-rule="evenodd" d="M69.9066 79.7858C70.4856 79.6067 71.3526 79.9088 71.4115 80.7122C71.4621 81.3984 70.8518 81.9504 70.3698 81.9861C69.2514 82.0686 68.464 80.2316 69.9066 79.7858Z" fill="#544236"/>
<path fill-rule="evenodd" clip-rule="evenodd" d="M76.9702 80.249C77.2799 80.1187 77.8136 80.1723 77.8965 80.7122C78.0258 81.5523 76.604 81.8211 76.507 80.9439C76.478 80.6814 76.4737 80.4579 76.9702 80.249Z" fill="#544236"/>
<path fill-rule="evenodd" clip-rule="evenodd" d="M24.7461 82.2178C25.2503 82.1357 26.0826 82.211 26.5988 82.681C27.8292 83.801 27.1889 86.5027 25.0935 86.5027C24.6438 86.5027 23.9051 86.2209 23.5881 85.9236C23.0091 85.3813 22.7008 84.1286 23.2407 83.26C23.5428 82.7741 23.8728 82.3601 24.7461 82.2178Z" fill="#544236"/>
<path fill-rule="evenodd" clip-rule="evenodd" d="M31.4623 82.2178C32.2289 82.031 32.8263 82.0981 33.315 82.4494C33.3551 82.4783 33.3951 82.6651 33.4308 82.681C33.6209 82.7664 33.7579 82.8388 33.894 83.0284C34.1912 83.4419 34.3451 84.6512 34.1256 85.2288C33.9644 85.6534 33.2446 86.2817 32.9676 86.3869C31.0777 87.1039 28.9427 85.0917 30.1885 83.1442C30.4737 82.6984 30.725 82.3973 31.4623 82.2178Z" fill="#544236"/>
<path fill-rule="evenodd" clip-rule="evenodd" d="M38.6416 82.2178C39.1463 82.1357 39.9781 82.211 40.4944 82.681C41.7252 83.801 41.0849 86.5027 38.9895 86.5027C38.5394 86.5027 37.8011 86.2209 37.4842 85.9236C36.9052 85.3813 36.5969 84.1286 37.1363 83.26C37.4388 82.7741 37.7683 82.3601 38.6416 82.2178Z" fill="#544236"/>
<path fill-rule="evenodd" clip-rule="evenodd" d="M17.9141 82.3336C17.9247 82.3321 17.9329 82.2153 18.0299 82.2178C19.1526 82.2457 20.1818 83.1061 20.23 84.1865C20.286 85.4459 18.9746 86.6494 17.6825 86.2711C16.8444 86.0255 15.6595 84.9808 16.1772 83.6075C16.3871 83.0506 16.9974 82.4556 17.9141 82.3336Z" fill="#544236"/>
<path fill-rule="evenodd" clip-rule="evenodd" d="M45.7052 82.3336C45.7153 82.3321 45.724 82.2153 45.8205 82.2178C46.9433 82.2457 47.9729 83.1061 48.0211 84.1865C48.0766 85.4459 46.7657 86.6499 45.4736 86.2711C44.6355 86.0255 43.4506 84.9808 43.9683 83.6075C44.1781 83.0506 44.7885 82.4556 45.7052 82.3336Z" fill="#544236"/>
<path fill-rule="evenodd" clip-rule="evenodd" d="M52.3056 82.5652C52.8513 82.4093 53.1089 82.3635 53.4635 82.4494C53.8225 82.5362 54.6162 83.2402 54.7373 83.8391C54.9848 85.0623 54.0459 86.3922 52.5372 86.1553C51.7604 86.0332 50.8335 85.3446 51.0318 83.9549C51.1008 83.4719 51.4665 82.8045 52.3056 82.5652Z" fill="#544236"/>
<path fill-rule="evenodd" clip-rule="evenodd" d="M59.2534 82.7968C59.73 82.6434 60.3216 82.5758 60.6429 82.7968C60.6844 82.8258 60.7216 83.0115 60.7582 83.0284C60.9382 83.1095 61.3666 83.3889 61.453 83.7233C61.5987 84.2859 61.4149 84.9277 61.2219 85.2288C60.8981 85.7326 59.7711 86.2474 58.9055 85.692C58.0066 85.1149 57.8768 83.2398 59.2534 82.7968Z" fill="#544236"/>
<path fill-rule="evenodd" clip-rule="evenodd" d="M66.4327 83.0284C67.2119 82.8306 68.1697 83.2784 68.1697 84.3023C68.1697 85.0797 67.4961 85.6568 66.8959 85.692C66.2494 85.7301 65.3906 85.3137 65.3906 84.3023C65.3906 83.5988 65.6574 83.2253 66.4327 83.0284Z" fill="#544236"/>
<path fill-rule="evenodd" clip-rule="evenodd" d="M73.3805 83.3758C74.9047 82.8291 75.227 85.2298 73.8437 85.3446C72.8826 85.4242 72.0503 83.8531 73.3805 83.3758Z" fill="#544236"/>
<path fill-rule="evenodd" clip-rule="evenodd" d="M81.1388 84.1865C81.1745 84.6468 80.9164 84.8133 80.4445 84.7655C80.3934 84.6623 80.3427 84.5585 80.213 84.5339C79.9953 83.7744 81.0148 83.6258 81.1388 84.1865Z" fill="#544236"/>
<path fill-rule="evenodd" clip-rule="evenodd" d="M28.1042 85.5762C28.7411 85.4546 29.2506 85.5564 29.8411 85.9236C30.148 86.1142 30.4003 86.2735 30.6517 86.8501C31.2635 88.2519 30.3115 90.0266 28.6832 90.0928C28.2581 90.1101 27.7283 89.9842 27.2936 89.7453C27.2444 89.7183 27.2188 89.5325 27.1778 89.5137C26.9153 89.3955 26.6852 89.1653 26.483 88.703C26.1139 87.8576 26.2857 87.2275 26.7146 86.5027C26.9554 86.0959 27.2883 85.7326 28.1042 85.5762Z" fill="#544236"/>
<path fill-rule="evenodd" clip-rule="evenodd" d="M35.052 85.5762C35.6883 85.4546 36.1983 85.5564 36.7889 85.9236C37.0958 86.1142 37.3476 86.2735 37.5995 86.8501C38.2117 88.2519 37.2598 90.0266 35.6314 90.0928C35.2059 90.1101 34.6766 89.9842 34.2414 89.7453C34.1922 89.7183 34.1671 89.5325 34.1261 89.5137C33.8631 89.395 33.633 89.1653 33.4313 88.703C33.0622 87.8576 33.234 87.2275 33.6629 86.5027C33.9032 86.0959 34.2366 85.7326 35.052 85.5762Z" fill="#544236"/>
<path fill-rule="evenodd" clip-rule="evenodd" d="M21.1564 85.692C22.4784 85.4179 23.8197 86.3603 23.8197 87.7766C23.8197 88.9757 22.751 89.9769 21.6196 89.9769C20.4713 89.9769 19.3606 89.1156 19.4195 87.6608C19.4614 86.617 20.0158 85.9285 21.1564 85.692Z" fill="#544236"/>
<path fill-rule="evenodd" clip-rule="evenodd" d="M41.9997 85.692C43.3217 85.4179 44.6635 86.3603 44.6635 87.7766C44.6635 88.9757 43.5943 89.9769 42.4629 89.9769C41.3146 89.9769 40.2039 89.1156 40.2628 87.6608C40.3048 86.617 40.8587 85.9285 41.9997 85.692Z" fill="#544236"/>
<path fill-rule="evenodd" clip-rule="evenodd" d="M48.7159 85.9236C49.8073 85.5926 50.2213 85.8078 50.8002 86.3869C51.1578 86.7444 51.6528 87.3978 51.3792 88.4714C51.2827 88.8517 50.5744 89.6242 50.1055 89.7453C49.1212 90.0001 48.533 89.6783 48.0211 89.1663C47.6631 88.8082 47.1594 88.1925 47.4421 87.0817C47.5126 86.8043 47.9999 86.1408 48.7159 85.9236Z" fill="#544236"/>
<path fill-rule="evenodd" clip-rule="evenodd" d="M56.0111 86.0394C56.8226 85.8928 57.4272 86.149 57.7485 86.5027C57.8619 86.6281 58.1953 87.3013 58.2117 87.6608C58.3246 90.1632 54.5057 90.2945 54.5057 87.7766C54.5057 87.5421 54.5689 87.2236 54.6215 87.0817C54.8155 86.5644 55.2497 86.177 56.0111 86.0394Z" fill="#544236"/>
<path fill-rule="evenodd" clip-rule="evenodd" d="M63.0746 86.2711C63.6768 86.1755 64.2008 86.3555 64.4642 86.6185C65.2941 87.448 64.7296 89.3323 63.422 89.3979C62.5135 89.4437 61.3304 88.4063 61.8009 87.1975C61.991 86.7087 62.3557 86.3854 63.0746 86.2711Z" fill="#544236"/>
<path fill-rule="evenodd" clip-rule="evenodd" d="M69.9066 86.6185C70.3162 86.5075 70.6926 86.4877 70.9483 86.6185C71.1881 86.7411 71.4843 87.227 71.5273 87.545C71.7705 89.3463 69.098 89.6561 68.9798 87.8924C68.9248 87.0658 69.1814 86.8149 69.9066 86.6185Z" fill="#544236"/>
<path fill-rule="evenodd" clip-rule="evenodd" d="M76.7386 87.0817C77.1101 86.756 77.8473 87.0489 78.0128 87.3133C78.4451 88.6234 76.9195 88.9313 76.3917 88.2398C76.3849 87.7322 76.3101 87.1551 76.7386 87.0817Z" fill="#544236"/>
<path fill-rule="evenodd" clip-rule="evenodd" d="M33.894 92.8722C35.713 91.3435 38.2822 92.9523 37.9469 95.1883C37.8754 95.6651 37.6352 95.8769 37.3679 96.3464C37.9792 96.0453 38.2079 95.8084 38.7574 95.7674C40.3434 95.6492 41.4671 96.9472 41.4212 98.3152C41.3662 99.936 39.1169 101.49 37.4842 100.052C37.3732 100.363 37.8639 100.616 37.9473 101.095C38.2291 102.717 36.992 104.397 35.0524 104.106C34.5757 104.034 34.3634 103.794 33.8945 103.527C34.1603 104.088 34.4305 104.344 34.4735 104.916C34.5907 106.493 33.4009 107.496 32.2733 107.58C30.3222 107.726 28.715 105.338 30.189 103.643C29.8783 103.532 29.625 104.023 29.1468 104.106C27.5242 104.388 25.8457 103.151 26.1361 101.211C26.2075 100.734 26.4478 100.522 26.7151 100.053C26.0498 100.338 25.8056 100.613 25.2098 100.632C23.7734 100.679 22.6622 99.4757 22.6622 98.1999C22.6622 97.0543 23.5534 95.7679 25.094 95.7679C25.727 95.7679 26.0874 96.0096 26.5993 96.3469C26.6862 96.0521 26.2085 95.7259 26.1361 95.1888C25.8418 93.0005 28.3922 91.3686 30.189 92.8727C29.9415 92.2695 29.6298 91.9838 29.61 91.3671C29.5594 89.811 30.8032 88.856 31.9259 88.8193C33.756 88.7595 35.2237 90.9049 34.0103 92.641C33.9876 92.7342 33.8935 92.7559 33.894 92.8722ZM30.6517 95.999C31.0271 95.9464 31.2263 95.7032 31.6939 95.6516C32.545 95.557 33.0791 96.0024 33.4308 95.8832C33.0583 95.5198 32.9696 94.8018 33.0834 94.1461C33.1741 93.6259 33.6991 93.3364 33.5466 93.1038C33.136 93.4025 32.6637 93.6828 32.0413 93.6828C31.2384 93.6828 30.8157 93.1289 30.4201 93.2196C31.1105 93.6534 31.18 95.3239 30.6517 95.999ZM27.5252 98.3152C27.503 98.9917 26.9887 99.4255 27.062 99.8207C27.4552 99.1239 29.2028 99.0361 29.8411 99.5891C29.6337 99.0752 29.4035 98.459 29.4937 97.7361C29.5415 97.3535 29.9506 97.0702 29.7253 96.8097C29.3664 97.1373 28.6918 97.2599 28.1042 97.1571C27.5836 97.0659 27.199 96.62 26.9462 96.6939C27.2729 97.1214 27.5464 97.6662 27.5252 98.3152ZM34.2414 96.8097C34.4488 97.3236 34.679 97.9398 34.5893 98.6626C34.541 99.0457 34.1323 99.3285 34.3577 99.5891C34.6491 99.1471 35.4794 99.2441 36.2104 99.2417C36.443 99.4004 37.0104 99.8236 37.1368 99.7049C36.7619 99.2933 36.442 98.5386 36.5583 97.852C36.6524 97.2951 37.0972 96.897 37.0215 96.5781C36.6273 97.2748 34.8797 97.3622 34.2414 96.8097ZM32.3886 102.716C32.9454 102.81 33.3435 103.255 33.6624 103.179C32.9657 102.786 32.8779 101.038 33.4308 100.399C32.917 100.607 32.3008 100.837 31.5781 100.747C31.1955 100.699 30.9122 100.29 30.6517 100.516C31.0937 100.807 30.9967 101.637 30.9991 102.368C30.8403 102.601 30.4172 103.169 30.5359 103.295C30.947 102.92 31.7021 102.6 32.3886 102.716Z" fill="#544236"/>
<path fill-rule="evenodd" clip-rule="evenodd" d="M24.5145 89.0505C24.5825 89.035 25.2985 88.8579 25.6725 88.9347C26.3614 89.0761 27.2753 89.9871 27.4094 90.7876C27.6632 92.3042 26.4816 93.7982 24.7461 93.567C23.6171 93.4165 22.1653 91.8825 23.0091 90.2086C23.2808 89.6696 23.6928 89.2392 24.5145 89.0505Z" fill="#544236"/>
<path fill-rule="evenodd" clip-rule="evenodd" d="M37.3679 92.988C36.785 92.4471 36.5505 91.8704 36.6731 90.9034C36.8666 89.3825 38.1905 88.6828 39.568 88.9347C40.3154 89.0712 41.1592 89.9355 41.3054 90.6718C41.7295 92.8152 39.1154 94.6098 37.3679 92.988Z" fill="#544236"/>
<path fill-rule="evenodd" clip-rule="evenodd" d="M17.7983 89.1663C18.3025 89.0843 19.1348 89.1595 19.6511 89.6295C20.8814 90.7495 20.2416 93.4512 18.1457 93.4512C17.6955 93.4512 16.9573 93.1694 16.6404 92.8722C16.0614 92.3298 15.7531 91.0771 16.293 90.2086C16.595 89.7227 16.925 89.3086 17.7983 89.1663Z" fill="#544236"/>
<path fill-rule="evenodd" clip-rule="evenodd" d="M45.5894 89.1663C46.8265 88.9713 48.1369 89.8052 48.1369 91.2508C48.1369 92.3394 47.2231 93.4044 46.0526 93.4512C44.968 93.4942 43.7367 92.8003 43.7367 91.2508C43.7367 90.0151 44.43 89.3492 45.5894 89.1663Z" fill="#544236"/>
<path fill-rule="evenodd" clip-rule="evenodd" d="M52.4214 89.3979C52.8006 89.3144 53.3473 89.2802 53.8109 89.5137C54.2259 89.7231 54.7899 90.2308 54.8531 91.0192C54.939 92.0948 54.1395 93.3576 52.7688 93.2196C51.8742 93.1294 50.7949 92.5358 50.916 91.0192C50.9725 90.3109 51.3763 89.6281 52.4214 89.3979Z" fill="#544236"/>
<path fill-rule="evenodd" clip-rule="evenodd" d="M59.3692 89.6295C59.744 89.5364 59.9703 89.4481 60.2955 89.5137C60.8026 89.616 61.4767 90.2752 61.5698 90.9034C61.729 91.9838 60.9951 92.8678 60.1802 92.988C59.1728 93.1366 57.9613 92.4591 58.0959 91.0192C58.1494 90.4354 58.4548 89.8568 59.3692 89.6295Z" fill="#544236"/>
<path fill-rule="evenodd" clip-rule="evenodd" d="M66.5485 89.8611C66.5973 89.852 66.6513 89.7371 66.7801 89.7453C67.6182 89.7974 68.2464 90.4537 68.2855 91.135C68.3323 91.9515 67.5482 92.7192 66.8959 92.7564C66.191 92.7964 65.2748 92.171 65.2748 91.2508C65.2748 90.4812 65.7992 89.9967 66.5485 89.8611Z" fill="#544236"/>
<path fill-rule="evenodd" clip-rule="evenodd" d="M73.4963 90.2086C74.0704 90.0764 74.8178 90.306 74.8859 91.135C75.0147 92.7038 72.5699 92.794 72.5699 91.2508C72.5699 90.8836 72.6708 90.3987 73.4963 90.2086Z" fill="#544236"/>
<path fill-rule="evenodd" clip-rule="evenodd" d="M81.2546 90.9034C81.3762 91.6427 81.0674 91.9515 80.3283 91.8299C79.5602 91.2204 80.6448 90.1357 81.2546 90.9034Z" fill="#544236"/>
<path fill-rule="evenodd" clip-rule="evenodd" d="M21.1564 92.5247C21.7933 92.4027 22.3028 92.505 22.8933 92.8722C23.2002 93.0633 23.4521 93.222 23.7039 93.7986C24.3157 95.2009 23.3638 96.9752 21.7354 97.0413C21.3103 97.0587 20.7806 96.9327 20.3458 96.6939C20.2966 96.6668 20.2715 96.4811 20.23 96.4622C19.9676 96.344 19.7369 96.1139 19.5353 95.6516C19.1662 94.8057 19.3374 94.1755 19.7669 93.4512C20.0076 93.0444 20.341 92.6806 21.1564 92.5247Z" fill="#544236"/>
<path fill-rule="evenodd" clip-rule="evenodd" d="M41.9997 92.5247C42.6366 92.4027 43.1466 92.505 43.7372 92.8722C44.044 93.0633 44.2959 93.222 44.5477 93.7986C45.16 95.2009 44.2076 96.9752 42.5792 97.0413C42.1541 97.0587 41.6244 96.9327 41.1896 96.6939C41.1404 96.6668 41.1153 96.4811 41.0738 96.4622C40.8114 96.344 40.5812 96.1139 40.3795 95.6516C40.01 94.8057 40.1817 94.1755 40.6107 93.4512C40.8509 93.0444 41.1838 92.6806 41.9997 92.5247Z" fill="#544236"/>
<path fill-rule="evenodd" clip-rule="evenodd" d="M48.8317 92.7564C49.3764 92.6179 49.8806 92.531 50.3371 92.7564C50.3887 92.7819 50.4104 92.9687 50.4529 92.988C50.5088 93.0131 50.6362 92.9513 50.684 92.988C51.0458 93.2601 51.4598 93.9902 51.495 94.1461C51.6224 94.7188 51.4381 95.3075 51.2634 95.6516C50.8499 96.4656 49.7079 97.2 48.4843 96.5781C47.859 96.2601 47.0344 95.5121 47.3263 94.1461C47.3886 93.8546 47.9208 93.0121 48.6006 92.7564C48.6672 92.7308 48.7617 92.7742 48.8317 92.7564Z" fill="#544236"/>
<path fill-rule="evenodd" clip-rule="evenodd" d="M55.7795 92.988C56.1934 92.8722 56.9152 92.823 57.4001 93.1038C57.4479 93.1313 57.4759 93.3171 57.5159 93.3354C57.8537 93.4874 57.639 93.2138 57.9791 93.7986C58.217 94.2073 58.3318 95.1575 57.9791 95.7674C57.9516 95.8152 57.7659 95.8427 57.748 95.8832C57.6486 96.1037 57.6173 96.1529 57.2848 96.3464C56.3758 96.8753 54.2191 96.4835 54.5052 94.3777C54.5781 93.8459 54.9139 93.2297 55.7795 92.988Z" fill="#544236"/>
<path fill-rule="evenodd" clip-rule="evenodd" d="M62.843 93.2196C63.8239 92.9581 64.3749 93.2698 64.8116 94.0303C65.2979 94.8771 64.5129 96.2089 63.6536 96.3464C62.8126 96.4811 61.5336 95.9179 61.6856 94.4935C61.7406 93.9724 62.0122 93.4406 62.843 93.2196Z" fill="#544236"/>
<path fill-rule="evenodd" clip-rule="evenodd" d="M70.1382 93.4512C72.1053 93.2119 71.9731 96.2335 70.1382 96.1148C68.7569 96.0256 68.3101 93.6737 70.1382 93.4512Z" fill="#544236"/>
<path fill-rule="evenodd" clip-rule="evenodd" d="M76.8544 93.9145C78.5354 93.2104 78.4369 96.1023 76.8544 95.6516C76.1331 95.446 76.0983 94.231 76.8544 93.9145Z" fill="#544236"/>
<path fill-rule="evenodd" clip-rule="evenodd" d="M83.918 94.3777C84.3368 94.2677 84.0796 94.8337 84.1495 95.0725C83.7119 95.1719 83.7394 94.5543 83.918 94.3777Z" fill="#544236"/>
<path fill-rule="evenodd" clip-rule="evenodd" d="M45.3578 96.1148C46.1245 95.9281 46.7218 95.9952 47.211 96.3464C47.2511 96.3754 47.2906 96.5616 47.3263 96.5781C47.5164 96.6635 47.6535 96.7358 47.7895 96.9255C48.0867 97.339 48.2407 98.5483 48.0211 99.1259C47.86 99.551 47.1401 100.179 46.8632 100.284C44.9738 101.001 42.8383 98.9888 44.0841 97.0413C44.3692 96.5954 44.6206 96.2943 45.3578 96.1148Z" fill="#544236"/>
<path fill-rule="evenodd" clip-rule="evenodd" d="M52.3056 96.3464C52.8469 96.2108 53.19 96.1742 53.4635 96.2306C54.2128 96.385 55.1532 97.3477 54.8531 98.7784C54.4459 100.719 51.2948 100.548 50.916 98.7784C50.6439 97.5055 51.2441 96.6123 52.3056 96.3464Z" fill="#544236"/>
<path fill-rule="evenodd" clip-rule="evenodd" d="M59.2534 96.5781C59.7006 96.4463 60.1204 96.3913 60.4108 96.4622C60.6873 96.5298 61.466 97.2005 61.5688 97.6203C61.9784 99.2841 60.4321 100.227 59.2529 99.9365C58.9745 99.868 58.1842 99.1398 58.0949 98.7789C57.8517 97.796 58.2208 96.882 59.2534 96.5781Z" fill="#544236"/>
<path fill-rule="evenodd" clip-rule="evenodd" d="M66.4327 96.8097C68.6748 96.3059 68.8461 99.6031 66.8959 99.7049C66.052 99.7488 65.2748 99.2349 65.2748 98.1994C65.2748 97.4071 65.5937 96.9983 66.4327 96.8097Z" fill="#544236"/>
<path fill-rule="evenodd" clip-rule="evenodd" d="M73.3805 97.1571C75.1575 96.6046 75.323 99.2475 73.8437 99.358C73.3096 99.3975 72.6283 99.1032 72.5699 98.3157C72.5197 97.6358 72.7098 97.3656 73.3805 97.1571Z" fill="#544236"/>
<path fill-rule="evenodd" clip-rule="evenodd" d="M80.4441 97.6203C80.7538 97.4901 81.2874 97.5436 81.3704 98.0836C81.4997 98.9232 80.0774 99.1924 79.9809 98.3152C79.9519 98.0527 79.9471 97.8293 80.4441 97.6203Z" fill="#544236"/>
<path fill-rule="evenodd" clip-rule="evenodd" d="M41.9997 99.4733C42.6366 99.3517 43.1466 99.454 43.7372 99.8212C44.044 100.012 44.2959 100.171 44.5477 100.748C45.16 102.149 44.2076 103.924 42.5792 103.99C42.1541 104.007 41.6244 103.882 41.1896 103.643C41.1404 103.616 41.1153 103.43 41.0738 103.411C40.8114 103.293 40.5812 103.063 40.3795 102.601C40.01 101.755 40.1817 101.125 40.6107 100.4C40.8509 99.9934 41.1838 99.6296 41.9997 99.4733Z" fill="#544236"/>
<path fill-rule="evenodd" clip-rule="evenodd" d="M48.8317 99.7049C49.8908 99.4395 50.4046 99.6562 50.916 100.168C51.2962 100.548 51.7358 101.676 51.3792 102.6C51.248 102.94 50.6347 103.528 50.3371 103.642C48.8428 104.219 46.7884 103.17 47.4421 100.978C47.5821 100.51 47.9 99.9384 48.8317 99.7049Z" fill="#544236"/>
<path fill-rule="evenodd" clip-rule="evenodd" d="M55.7795 99.9365C56.1934 99.8212 56.9152 99.772 57.4001 100.052C57.4479 100.08 57.4759 100.266 57.5159 100.284C57.8537 100.436 57.639 100.162 57.9791 100.747C58.217 101.156 58.3318 102.106 57.9791 102.716C57.9516 102.764 57.7659 102.791 57.748 102.831C57.6486 103.052 57.6173 103.101 57.2848 103.294C56.3758 103.824 54.2191 103.432 54.5052 101.326C54.5781 100.794 54.9139 100.178 55.7795 99.9365Z" fill="#544236"/>
<path fill-rule="evenodd" clip-rule="evenodd" d="M62.843 100.168C63.8239 99.9071 64.3749 100.218 64.8116 100.979C65.2979 101.826 64.5129 103.158 63.6536 103.295C62.8126 103.43 61.5336 102.866 61.6856 101.442C61.7406 100.921 62.0122 100.389 62.843 100.168Z" fill="#544236"/>
<path fill-rule="evenodd" clip-rule="evenodd" d="M70.1382 100.4C72.1053 100.161 71.9731 103.183 70.1382 103.064C68.7569 102.974 68.3101 100.622 70.1382 100.4Z" fill="#544236"/>
<path fill-rule="evenodd" clip-rule="evenodd" d="M76.8544 100.863C78.5354 100.159 78.4369 103.051 76.8544 102.601C76.1331 102.395 76.0983 101.18 76.8544 100.863Z" fill="#544236"/>
<path fill-rule="evenodd" clip-rule="evenodd" d="M83.918 101.326C84.3368 101.216 84.0796 101.782 84.1495 102.021C83.7119 102.12 83.7394 101.503 83.918 101.326Z" fill="#544236"/>
<path fill-rule="evenodd" clip-rule="evenodd" d="M37.2521 103.527C37.7929 102.944 38.3695 102.709 39.3364 102.832C40.8572 103.025 41.5573 104.349 41.3049 105.727C41.1684 106.474 40.3043 107.318 39.5675 107.465C37.4248 107.889 35.63 105.274 37.2521 103.527Z" fill="#544236"/>
<path fill-rule="evenodd" clip-rule="evenodd" d="M45.5894 103.063C46.8265 102.868 48.1369 103.702 48.1369 105.148C48.1369 106.237 47.2231 107.301 46.0526 107.348C44.968 107.391 43.7367 106.697 43.7367 105.148C43.7367 103.912 44.43 103.246 45.5894 103.063Z" fill="#544236"/>
<path fill-rule="evenodd" clip-rule="evenodd" d="M52.4214 103.295C52.8006 103.211 53.3473 103.177 53.8109 103.411C54.2326 103.624 54.7913 104.144 54.8531 104.916C54.9414 106.022 54.1178 107.253 52.7688 107.117C51.8742 107.026 50.7949 106.433 50.916 104.916C50.9725 104.208 51.3763 103.525 52.4214 103.295Z" fill="#544236"/>
<path fill-rule="evenodd" clip-rule="evenodd" d="M59.3692 103.527C59.744 103.433 59.9703 103.345 60.2955 103.411C60.8026 103.513 61.4767 104.172 61.5698 104.8C61.729 105.881 60.9951 106.765 60.1802 106.885C59.1728 107.034 57.9613 106.356 58.0959 104.916C58.1494 104.332 58.4548 103.754 59.3692 103.527Z" fill="#544236"/>
<path fill-rule="evenodd" clip-rule="evenodd" d="M66.5485 103.758C66.5973 103.75 66.6513 103.635 66.7801 103.643C67.6182 103.695 68.2464 104.351 68.2855 105.033C68.3323 105.849 67.5482 106.616 66.8959 106.653C66.191 106.694 65.2748 106.069 65.2748 105.148C65.2748 104.378 65.7992 103.894 66.5485 103.758Z" fill="#544236"/>
<path fill-rule="evenodd" clip-rule="evenodd" d="M73.4963 104.106C74.0704 103.973 74.8178 104.203 74.8859 105.032C75.0147 106.601 72.5699 106.691 72.5699 105.148C72.5699 104.781 72.6708 104.296 73.4963 104.106Z" fill="#544236"/>
<path fill-rule="evenodd" clip-rule="evenodd" d="M81.2546 104.8C81.3762 105.54 81.0674 105.849 80.3283 105.727C79.5602 105.118 80.6448 104.033 81.2546 104.8Z" fill="#544236"/>
<path fill-rule="evenodd" clip-rule="evenodd" d="M56.0111 106.885C56.8226 106.738 57.4272 106.995 57.7485 107.348C57.8619 107.474 58.1953 108.147 58.2117 108.506C58.3246 111.009 54.5057 111.14 54.5057 108.622C54.5057 108.388 54.5689 108.069 54.6215 107.927C54.8155 107.41 55.2497 107.023 56.0111 106.885Z" fill="#544236"/>
<path fill-rule="evenodd" clip-rule="evenodd" d="M69.9066 107.464C70.3162 107.353 70.6926 107.333 70.9483 107.464C71.1881 107.587 71.4843 108.073 71.5273 108.391C71.7705 110.192 69.098 110.501 68.9798 108.738C68.9248 107.911 69.1814 107.66 69.9066 107.464Z" fill="#544236"/>
<path fill-rule="evenodd" clip-rule="evenodd" d="M76.7386 107.927C77.1101 107.601 77.8473 107.895 78.0128 108.158C78.4451 109.469 76.9195 109.777 76.3917 109.085C76.3849 108.578 76.3101 108.001 76.7386 107.927Z" fill="#544236"/>
</g>
<path d="M68.2013 45.6158C57.246 45.4593 35.711 48.4332 37.2134 61.581C39.0915 78.0157 66.7927 70.0331 64.9147 65.807C63.0366 61.581 37.2134 68.1548 40.9695 79.4243C44.7256 90.6939 67.7317 87.8765 67.2622 82.7113C66.7927 77.5461 42.3781 85.0591 45.6647 95.8591C48.2939 104.499 67.2622 102.433 75.2439 98.2069" stroke="#C59388" stroke-width="2" stroke-linejoin="round"/>
<ellipse cx="4.69538" cy="5.16491" rx="4.69538" ry="5.16491" transform="matrix(0.703189 -0.711003 0.710928 0.703265 7.70325 90.4)" fill="#1AE69B"/>
</svg>
